<svg width="128" height="128" viewBox="0 0 128 128" fill="none" xmlns="http://www.w3.org/2000/svg">
<rect width="128" height="128" rx="32" fill="url(#paint0_linear)"/>
<g filter="url(#filter0_d)">
<rect x="24" y="28" width="80" height="72" rx="8" fill="white" fill-opacity="0.2"/>
<path d="M24 36C24 31.5817 27.5817 28 32 28H96C100.418 28 104 31.5817 104 36V48H24V36Z" fill="white"/>
<rect x="34" y="60" width="60" height="8" rx="4" fill="white"/>
<rect x="34" y="78" width="40" height="8" rx="4" fill="white"/>
</g>
<circle cx="98" cy="98" r="22" fill="#F59E0B" stroke="white" stroke-width="2"/>
<path d="M98 86L90 100H98L96 110L106 96H98L98 86Z" fill="white" stroke="white" stroke-width="2" stroke-linejoin="round"/>
<defs>
<linearGradient id="paint0_linear" x1="64" y1="0" x2="64" y2="128" gradientUnits="userSpaceOnUse">
<stop stop-color="#3B82F6"/>
<stop offset="1" stop-color="#1D4ED8"/>
</linearGradient>
<filter id="filter0_d" x="20" y="28" width="88" height="80" filterUnits="userSpaceOnUse" color-interpolation-filters="sRGB">
<feFlood flood-opacity="0" result="BackgroundImageFix"/>
<feColorMatrix in="SourceAlpha" type="matrix" values="0 0 0 0 0 0 0 0 0 0 0 0 0 0 0 0 0 0 127 0" result="hardAlpha"/>
<feOffset dy="4"/>
<feGaussianBlur stdDeviation="2"/>
<feComposite in2="hardAlpha" operator="out"/>
<feColorMatrix type="matrix" values="0 0 0 0 0 0 0 0 0 0 0 0 0 0 0 0 0 0 0.15 0"/>
<feBlend mode="normal" in2="BackgroundImageFix" result="effect1_dropShadow"/>
<feBlend mode="normal" in="SourceGraphic" in2="effect1_dropShadow" result="shape"/>
</filter>
</defs>
</svg>